<mxfile host="app.diagrams.net" agent="Mozilla/5.0 (Windows NT 10.0; Win64; x64) AppleWebKit/537.36 (KHTML, like Gecko) Chrome/133.0.0.0 Safari/537.36" version="26.0.7">
  <diagram name="Seite-1" id="NAe6CwZM30K8DAq0jv_T">
    <mxGraphModel dx="1110" dy="738" grid="1" gridSize="10" guides="1" tooltips="1" connect="1" arrows="1" fold="1" page="1" pageScale="1" pageWidth="827" pageHeight="1169" math="0" shadow="0">
      <root>
        <mxCell id="0" />
        <mxCell id="1" parent="0" />
        <mxCell id="65ZI9_TYP8qIOSdvAGXZ-4" style="edgeStyle=orthogonalEdgeStyle;rounded=0;orthogonalLoop=1;jettySize=auto;html=1;exitX=0.75;exitY=1;exitDx=0;exitDy=0;" edge="1" parent="1" source="65ZI9_TYP8qIOSdvAGXZ-1" target="65ZI9_TYP8qIOSdvAGXZ-3">
          <mxGeometry relative="1" as="geometry" />
        </mxCell>
        <mxCell id="65ZI9_TYP8qIOSdvAGXZ-15" style="edgeStyle=orthogonalEdgeStyle;rounded=0;orthogonalLoop=1;jettySize=auto;html=1;exitX=0.25;exitY=1;exitDx=0;exitDy=0;entryX=0;entryY=0.5;entryDx=0;entryDy=0;" edge="1" parent="1" source="65ZI9_TYP8qIOSdvAGXZ-1" target="65ZI9_TYP8qIOSdvAGXZ-14">
          <mxGeometry relative="1" as="geometry" />
        </mxCell>
        <mxCell id="65ZI9_TYP8qIOSdvAGXZ-1" value="INPUT USER&lt;br&gt;&lt;br&gt;USERNAME, PASSWORD" style="rounded=0;whiteSpace=wrap;html=1;" vertex="1" parent="1">
          <mxGeometry x="40" y="30" width="200" height="120" as="geometry" />
        </mxCell>
        <mxCell id="65ZI9_TYP8qIOSdvAGXZ-18" style="edgeStyle=orthogonalEdgeStyle;rounded=0;orthogonalLoop=1;jettySize=auto;html=1;exitX=0.25;exitY=1;exitDx=0;exitDy=0;entryX=1;entryY=0.75;entryDx=0;entryDy=0;" edge="1" parent="1" source="65ZI9_TYP8qIOSdvAGXZ-2" target="65ZI9_TYP8qIOSdvAGXZ-14">
          <mxGeometry relative="1" as="geometry" />
        </mxCell>
        <mxCell id="65ZI9_TYP8qIOSdvAGXZ-2" value="DATABASE" style="rounded=0;whiteSpace=wrap;html=1;" vertex="1" parent="1">
          <mxGeometry x="550" y="350" width="120" height="60" as="geometry" />
        </mxCell>
        <mxCell id="65ZI9_TYP8qIOSdvAGXZ-6" style="edgeStyle=orthogonalEdgeStyle;rounded=0;orthogonalLoop=1;jettySize=auto;html=1;exitX=1;exitY=0.25;exitDx=0;exitDy=0;entryX=0;entryY=0.25;entryDx=0;entryDy=0;" edge="1" parent="1" source="65ZI9_TYP8qIOSdvAGXZ-3" target="65ZI9_TYP8qIOSdvAGXZ-5">
          <mxGeometry relative="1" as="geometry" />
        </mxCell>
        <mxCell id="65ZI9_TYP8qIOSdvAGXZ-13" style="edgeStyle=orthogonalEdgeStyle;rounded=0;orthogonalLoop=1;jettySize=auto;html=1;exitX=0.5;exitY=1;exitDx=0;exitDy=0;" edge="1" parent="1" source="65ZI9_TYP8qIOSdvAGXZ-3" target="65ZI9_TYP8qIOSdvAGXZ-2">
          <mxGeometry relative="1" as="geometry" />
        </mxCell>
        <mxCell id="65ZI9_TYP8qIOSdvAGXZ-3" value="SIGNUP" style="rounded=0;whiteSpace=wrap;html=1;" vertex="1" parent="1">
          <mxGeometry x="110" y="240" width="120" height="60" as="geometry" />
        </mxCell>
        <mxCell id="65ZI9_TYP8qIOSdvAGXZ-8" style="edgeStyle=orthogonalEdgeStyle;rounded=0;orthogonalLoop=1;jettySize=auto;html=1;exitX=0;exitY=0.5;exitDx=0;exitDy=0;entryX=1;entryY=0.5;entryDx=0;entryDy=0;" edge="1" parent="1" source="65ZI9_TYP8qIOSdvAGXZ-5" target="65ZI9_TYP8qIOSdvAGXZ-3">
          <mxGeometry relative="1" as="geometry">
            <Array as="points">
              <mxPoint x="360" y="240" />
              <mxPoint x="360" y="270" />
            </Array>
          </mxGeometry>
        </mxCell>
        <mxCell id="65ZI9_TYP8qIOSdvAGXZ-21" style="edgeStyle=orthogonalEdgeStyle;rounded=0;orthogonalLoop=1;jettySize=auto;html=1;exitX=1;exitY=0.5;exitDx=0;exitDy=0;entryX=0.5;entryY=1;entryDx=0;entryDy=0;" edge="1" parent="1" source="65ZI9_TYP8qIOSdvAGXZ-5" target="65ZI9_TYP8qIOSdvAGXZ-14">
          <mxGeometry relative="1" as="geometry">
            <Array as="points">
              <mxPoint x="760" y="240" />
              <mxPoint x="760" y="570" />
              <mxPoint x="170" y="570" />
            </Array>
          </mxGeometry>
        </mxCell>
        <mxCell id="65ZI9_TYP8qIOSdvAGXZ-5" value="HASH PASSOWRD" style="rounded=0;whiteSpace=wrap;html=1;" vertex="1" parent="1">
          <mxGeometry x="450" y="210" width="120" height="60" as="geometry" />
        </mxCell>
        <mxCell id="65ZI9_TYP8qIOSdvAGXZ-9" value="HASHED PASSWORD" style="text;html=1;align=center;verticalAlign=middle;resizable=0;points=[];autosize=1;strokeColor=none;fillColor=none;" vertex="1" parent="1">
          <mxGeometry x="260" y="270" width="150" height="30" as="geometry" />
        </mxCell>
        <mxCell id="65ZI9_TYP8qIOSdvAGXZ-10" value="PASSWORD" style="text;html=1;align=center;verticalAlign=middle;resizable=0;points=[];autosize=1;strokeColor=none;fillColor=none;" vertex="1" parent="1">
          <mxGeometry x="340" y="200" width="90" height="30" as="geometry" />
        </mxCell>
        <mxCell id="65ZI9_TYP8qIOSdvAGXZ-12" value="SET TO DATABASE" style="text;html=1;align=center;verticalAlign=middle;resizable=0;points=[];autosize=1;strokeColor=none;fillColor=none;" vertex="1" parent="1">
          <mxGeometry x="380" y="320" width="130" height="30" as="geometry" />
        </mxCell>
        <mxCell id="65ZI9_TYP8qIOSdvAGXZ-19" style="edgeStyle=orthogonalEdgeStyle;rounded=0;orthogonalLoop=1;jettySize=auto;html=1;exitX=0.75;exitY=1;exitDx=0;exitDy=0;entryX=1;entryY=0.75;entryDx=0;entryDy=0;" edge="1" parent="1" source="65ZI9_TYP8qIOSdvAGXZ-14" target="65ZI9_TYP8qIOSdvAGXZ-5">
          <mxGeometry relative="1" as="geometry">
            <Array as="points">
              <mxPoint x="200" y="540" />
              <mxPoint x="720" y="540" />
              <mxPoint x="720" y="255" />
            </Array>
          </mxGeometry>
        </mxCell>
        <mxCell id="65ZI9_TYP8qIOSdvAGXZ-23" style="edgeStyle=orthogonalEdgeStyle;rounded=0;orthogonalLoop=1;jettySize=auto;html=1;exitX=1;exitY=0.25;exitDx=0;exitDy=0;entryX=0;entryY=0.25;entryDx=0;entryDy=0;" edge="1" parent="1" source="65ZI9_TYP8qIOSdvAGXZ-14" target="65ZI9_TYP8qIOSdvAGXZ-2">
          <mxGeometry relative="1" as="geometry" />
        </mxCell>
        <mxCell id="65ZI9_TYP8qIOSdvAGXZ-27" style="edgeStyle=orthogonalEdgeStyle;rounded=0;orthogonalLoop=1;jettySize=auto;html=1;exitX=0.25;exitY=1;exitDx=0;exitDy=0;entryX=0.5;entryY=0;entryDx=0;entryDy=0;" edge="1" parent="1" source="65ZI9_TYP8qIOSdvAGXZ-14" target="65ZI9_TYP8qIOSdvAGXZ-26">
          <mxGeometry relative="1" as="geometry">
            <Array as="points">
              <mxPoint x="140" y="590" />
              <mxPoint x="170" y="590" />
            </Array>
          </mxGeometry>
        </mxCell>
        <mxCell id="65ZI9_TYP8qIOSdvAGXZ-14" value="LOGIN" style="rounded=0;whiteSpace=wrap;html=1;" vertex="1" parent="1">
          <mxGeometry x="110" y="460" width="120" height="60" as="geometry" />
        </mxCell>
        <mxCell id="65ZI9_TYP8qIOSdvAGXZ-20" value="PASSWORD" style="text;html=1;align=center;verticalAlign=middle;resizable=0;points=[];autosize=1;strokeColor=none;fillColor=none;" vertex="1" parent="1">
          <mxGeometry x="390" y="540" width="90" height="30" as="geometry" />
        </mxCell>
        <mxCell id="65ZI9_TYP8qIOSdvAGXZ-22" value="HASHED PASSWORD" style="text;html=1;align=center;verticalAlign=middle;resizable=0;points=[];autosize=1;strokeColor=none;fillColor=none;" vertex="1" parent="1">
          <mxGeometry x="264" y="570" width="150" height="30" as="geometry" />
        </mxCell>
        <mxCell id="65ZI9_TYP8qIOSdvAGXZ-24" value="USERNAME &amp;amp; HASHED PASSWORD" style="text;html=1;align=center;verticalAlign=middle;resizable=0;points=[];autosize=1;strokeColor=none;fillColor=none;" vertex="1" parent="1">
          <mxGeometry x="299" y="380" width="230" height="30" as="geometry" />
        </mxCell>
        <mxCell id="65ZI9_TYP8qIOSdvAGXZ-25" value="USER EXISTS" style="text;html=1;align=center;verticalAlign=middle;resizable=0;points=[];autosize=1;strokeColor=none;fillColor=none;" vertex="1" parent="1">
          <mxGeometry x="340" y="475" width="100" height="30" as="geometry" />
        </mxCell>
        <mxCell id="65ZI9_TYP8qIOSdvAGXZ-26" value="GO GO GO" style="rounded=0;whiteSpace=wrap;html=1;" vertex="1" parent="1">
          <mxGeometry x="110" y="660" width="120" height="60" as="geometry" />
        </mxCell>
        <mxCell id="65ZI9_TYP8qIOSdvAGXZ-28" value="USER EXISTS = TRUE" style="text;html=1;align=center;verticalAlign=middle;resizable=0;points=[];autosize=1;strokeColor=none;fillColor=none;" vertex="1" parent="1">
          <mxGeometry x="20" y="610" width="150" height="30" as="geometry" />
        </mxCell>
      </root>
    </mxGraphModel>
  </diagram>
</mxfile>
